<?xml version="1.0" encoding="UTF-8"?>
<svg xmlns="http://www.w3.org/2000/svg" xmlns:xlink="http://www.w3.org/1999/xlink" width="540px" height="540px" viewBox="0 0 540 540" version="1.1">
<defs>
<linearGradient id="linear0" gradientUnits="userSpaceOnUse" x1="26.5" y1="7" x2="4" y2="28" gradientTransform="matrix(16.875,0,0,16.875,0,0)">
<stop offset="0" style="stop-color:rgb(35.686275%,81.568627%,40%);stop-opacity:1;"/>
<stop offset="1" style="stop-color:rgb(15.294118%,70.588235%,24.313725%);stop-opacity:1;"/>
</linearGradient>
</defs>
<g id="surface1">
<path style=" stroke:none;fill-rule:evenodd;fill:rgb(74.901962%,78.431374%,81.568629%);fill-opacity:1;" d="M 270 523.125 C 400.480469 523.125 506.25 417.355469 506.25 286.875 C 506.25 156.394531 400.480469 50.625 270 50.625 C 139.519531 50.625 33.75 156.394531 33.75 286.875 C 33.75 329.246094 44.90625 369.015625 64.4375 403.398438 L 33.75 523.125 L 157.1875 494.5 C 190.710938 512.753906 229.144531 523.125 270 523.125 Z M 270 486.78125 C 380.40625 486.78125 469.90625 397.28125 469.90625 286.875 C 469.90625 176.46875 380.40625 86.96875 270 86.96875 C 159.59375 86.96875 70.09375 176.46875 70.09375 286.875 C 70.09375 329.5 83.441406 369.015625 106.175781 401.460938 L 88.269531 468.605469 L 156.601562 451.523438 C 188.820312 473.757812 227.890625 486.78125 270 486.78125 Z M 270 486.78125 "/>
<path style=" stroke:none;fill-rule:nonzero;fill:url(#linear0);" d="M 472.5 270 C 472.5 381.839844 381.839844 472.5 270 472.5 C 227.34375 472.5 187.765625 459.308594 155.125 436.789062 L 85.90625 454.09375 L 104.046875 386.070312 C 81.015625 353.203125 67.5 313.183594 67.5 270 C 67.5 158.160156 158.160156 67.5 270 67.5 C 381.839844 67.5 472.5 158.160156 472.5 270 Z M 472.5 270 "/>
<path style=" stroke:none;fill-rule:evenodd;fill:rgb(100%,100%,100%);fill-opacity:1;" d="M 270 506.25 C 400.480469 506.25 506.25 400.480469 506.25 270 C 506.25 139.519531 400.480469 33.75 270 33.75 C 139.519531 33.75 33.75 139.519531 33.75 270 C 33.75 312.371094 44.90625 352.140625 64.4375 386.523438 L 33.75 506.25 L 157.1875 477.625 C 190.710938 495.878906 229.144531 506.25 270 506.25 Z M 270 469.90625 C 380.40625 469.90625 469.90625 380.40625 469.90625 270 C 469.90625 159.59375 380.40625 70.09375 270 70.09375 C 159.59375 70.09375 70.09375 159.59375 70.09375 270 C 70.09375 312.625 83.441406 352.140625 106.175781 384.585938 L 88.269531 451.730469 L 156.601562 434.648438 C 188.820312 456.882812 227.890625 469.90625 270 469.90625 Z M 270 469.90625 "/>
<path style=" stroke:none;fill-rule:nonzero;fill:rgb(100%,100%,100%);fill-opacity:1;" d="M 210.9375 160.308594 C 205.324219 149.027344 196.703125 150.027344 188 150.027344 C 172.441406 150.027344 148.183594 168.664062 148.183594 203.34375 C 148.183594 231.765625 160.710938 262.878906 202.910156 309.421875 C 243.640625 354.339844 297.15625 377.574219 341.589844 376.785156 C 386.015625 375.992188 395.15625 337.761719 395.15625 324.847656 C 395.15625 319.128906 391.605469 316.273438 389.160156 315.496094 C 374.019531 308.230469 346.09375 294.691406 339.738281 292.148438 C 333.386719 289.601562 330.070312 293.046875 328.007812 294.914062 C 322.246094 300.40625 310.828125 316.589844 306.914062 320.226562 C 303.003906 323.871094 297.171875 322.023438 294.746094 320.648438 C 285.820312 317.066406 261.613281 306.296875 242.316406 287.59375 C 218.449219 264.460938 217.050781 256.5 212.554688 249.414062 C 208.957031 243.75 211.597656 240.273438 212.917969 238.753906 C 218.054688 232.820312 225.15625 223.660156 228.339844 219.109375 C 231.523438 214.558594 228.996094 207.648438 227.476562 203.34375 C 220.957031 184.832031 215.429688 169.335938 210.9375 160.308594 Z M 210.9375 160.308594 "/>
</g>
</svg>
